<svg id="visual" viewBox="0 0 900 600" width="900" height="600" xmlns="http://www.w3.org/2000/svg" xmlns:xlink="http://www.w3.org/1999/xlink" version="1.1"><g stroke-width="1" stroke-linejoin="bevel"><path d="M485 323L394 378L526 393Z" fill="#2b1c3f" stroke="#2b1c3f"></path><path d="M394 378L488 460L526 393Z" fill="#2e1c46" stroke="#2e1c46"></path><path d="M485 323L382 289L394 378Z" fill="#2f1c48" stroke="#2f1c48"></path><path d="M382 289L322 335L394 378Z" fill="#2a1c3c" stroke="#2a1c3c"></path><path d="M394 378L400 520L488 460Z" fill="#301c4b" stroke="#301c4b"></path><path d="M325 482L400 520L394 378Z" fill="#2b1c3f" stroke="#2b1c3f"></path><path d="M322 335L312 416L394 378Z" fill="#2f1c48" stroke="#2f1c48"></path><path d="M312 416L325 482L394 378Z" fill="#311c4d" stroke="#311c4d"></path><path d="M485 323L406 221L382 289Z" fill="#2b1c3f" stroke="#2b1c3f"></path><path d="M382 289L274 226L322 335Z" fill="#2c1c41" stroke="#2c1c41"></path><path d="M526 393L588 269L485 323Z" fill="#2b1c3f" stroke="#2b1c3f"></path><path d="M485 323L534 171L406 221Z" fill="#321c50" stroke="#321c50"></path><path d="M679 433L633 362L526 393Z" fill="#2d1c44" stroke="#2d1c44"></path><path d="M526 393L633 362L588 269Z" fill="#2a1c3c" stroke="#2a1c3c"></path><path d="M590 519L526 393L488 460Z" fill="#2e1c46" stroke="#2e1c46"></path><path d="M536 600L590 519L488 460Z" fill="#2e1c46" stroke="#2e1c46"></path><path d="M210 272L239 367L322 335Z" fill="#2b1c3f" stroke="#2b1c3f"></path><path d="M322 335L239 367L312 416Z" fill="#331c52" stroke="#331c52"></path><path d="M312 416L222 482L325 482Z" fill="#2e1c46" stroke="#2e1c46"></path><path d="M590 519L679 433L526 393Z" fill="#2b1c3f" stroke="#2b1c3f"></path><path d="M633 362L679 300L588 269Z" fill="#2e1c46" stroke="#2e1c46"></path><path d="M300 600L396 600L400 520Z" fill="#2a1c3c" stroke="#2a1c3c"></path><path d="M400 520L536 600L488 460Z" fill="#311c4d" stroke="#311c4d"></path><path d="M300 600L400 520L325 482Z" fill="#2c1c41" stroke="#2c1c41"></path><path d="M610 171L534 171L588 269Z" fill="#2c1c41" stroke="#2c1c41"></path><path d="M588 269L534 171L485 323Z" fill="#2b1c3f" stroke="#2b1c3f"></path><path d="M396 600L536 600L400 520Z" fill="#2a1c3c" stroke="#2a1c3c"></path><path d="M590 519L689 512L679 433Z" fill="#2c1c41" stroke="#2c1c41"></path><path d="M679 433L679 300L633 362Z" fill="#331c52" stroke="#331c52"></path><path d="M285 136L274 226L406 221Z" fill="#321c50" stroke="#321c50"></path><path d="M406 221L274 226L382 289Z" fill="#301c4b" stroke="#301c4b"></path><path d="M239 367L222 482L312 416Z" fill="#2b1c3f" stroke="#2b1c3f"></path><path d="M536 600L607 600L590 519Z" fill="#2d1c44" stroke="#2d1c44"></path><path d="M679 300L610 171L588 269Z" fill="#2c1c41" stroke="#2c1c41"></path><path d="M661 600L689 512L590 519Z" fill="#331c52" stroke="#331c52"></path><path d="M778 289L725 217L679 300Z" fill="#291c3a" stroke="#291c3a"></path><path d="M222 482L300 600L325 482Z" fill="#311c4d" stroke="#311c4d"></path><path d="M274 226L210 272L322 335Z" fill="#2a1c3c" stroke="#2a1c3c"></path><path d="M239 367L108 487L222 482Z" fill="#321c50" stroke="#321c50"></path><path d="M274 226L220 237L210 272Z" fill="#321c50" stroke="#321c50"></path><path d="M285 136L220 237L274 226Z" fill="#2f1c48" stroke="#2f1c48"></path><path d="M607 600L661 600L590 519Z" fill="#2d1c44" stroke="#2d1c44"></path><path d="M371 66L406 221L534 171Z" fill="#2c1c41" stroke="#2c1c41"></path><path d="M371 66L285 136L406 221Z" fill="#2c1c41" stroke="#2c1c41"></path><path d="M679 300L725 217L610 171Z" fill="#2c1c41" stroke="#2c1c41"></path><path d="M775 412L679 300L679 433Z" fill="#321c50" stroke="#321c50"></path><path d="M222 482L229 600L300 600Z" fill="#2f1c48" stroke="#2f1c48"></path><path d="M792 528L775 412L689 512Z" fill="#2a1c3c" stroke="#2a1c3c"></path><path d="M689 512L775 412L679 433Z" fill="#2e1c46" stroke="#2e1c46"></path><path d="M585 74L534 171L610 171Z" fill="#2e1c46" stroke="#2e1c46"></path><path d="M585 74L536 73L534 171Z" fill="#2b1c3f" stroke="#2b1c3f"></path><path d="M536 73L371 66L534 171Z" fill="#2e1c46" stroke="#2e1c46"></path><path d="M775 412L778 289L679 300Z" fill="#301c4b" stroke="#301c4b"></path><path d="M674 120L585 74L610 171Z" fill="#2e1c46" stroke="#2e1c46"></path><path d="M536 73L476 0L371 66Z" fill="#2c1c41" stroke="#2c1c41"></path><path d="M790 167L674 120L725 217Z" fill="#2f1c48" stroke="#2f1c48"></path><path d="M725 217L674 120L610 171Z" fill="#2e1c46" stroke="#2e1c46"></path><path d="M784 600L792 528L689 512Z" fill="#2d1c44" stroke="#2d1c44"></path><path d="M775 412L900 364L778 289Z" fill="#2e1c46" stroke="#2e1c46"></path><path d="M76 364L108 487L239 367Z" fill="#331c52" stroke="#331c52"></path><path d="M222 482L116 600L229 600Z" fill="#2f1c48" stroke="#2f1c48"></path><path d="M101 298L239 367L210 272Z" fill="#291c3a" stroke="#291c3a"></path><path d="M131 188L210 272L220 237Z" fill="#2a1c3c" stroke="#2a1c3c"></path><path d="M131 188L101 298L210 272Z" fill="#2a1c3c" stroke="#2a1c3c"></path><path d="M289 0L221 88L285 136Z" fill="#311c4d" stroke="#311c4d"></path><path d="M285 136L221 88L220 237Z" fill="#321c50" stroke="#321c50"></path><path d="M221 88L131 188L220 237Z" fill="#2d1c44" stroke="#2d1c44"></path><path d="M0 426L76 364L0 326Z" fill="#311c4d" stroke="#311c4d"></path><path d="M101 298L76 364L239 367Z" fill="#2c1c41" stroke="#2c1c41"></path><path d="M563 0L536 73L585 74Z" fill="#301c4b" stroke="#301c4b"></path><path d="M563 0L476 0L536 73Z" fill="#291c3a" stroke="#291c3a"></path><path d="M371 66L289 0L285 136Z" fill="#291c3a" stroke="#291c3a"></path><path d="M661 600L784 600L689 512Z" fill="#301c4b" stroke="#301c4b"></path><path d="M476 0L391 0L371 66Z" fill="#2c1c41" stroke="#2c1c41"></path><path d="M778 289L790 167L725 217Z" fill="#2c1c41" stroke="#2c1c41"></path><path d="M727 0L563 0L585 74Z" fill="#2d1c44" stroke="#2d1c44"></path><path d="M900 177L790 167L778 289Z" fill="#321c50" stroke="#321c50"></path><path d="M727 0L585 74L674 120Z" fill="#2a1c3c" stroke="#2a1c3c"></path><path d="M0 514L116 600L108 487Z" fill="#311c4d" stroke="#311c4d"></path><path d="M108 487L116 600L222 482Z" fill="#321c50" stroke="#321c50"></path><path d="M391 0L289 0L371 66Z" fill="#2a1c3c" stroke="#2a1c3c"></path><path d="M221 88L131 91L131 188Z" fill="#2d1c44" stroke="#2d1c44"></path><path d="M900 506L775 412L792 528Z" fill="#2f1c48" stroke="#2f1c48"></path><path d="M900 506L900 364L775 412Z" fill="#321c50" stroke="#321c50"></path><path d="M167 0L131 91L221 88Z" fill="#331c52" stroke="#331c52"></path><path d="M0 326L76 364L101 298Z" fill="#321c50" stroke="#321c50"></path><path d="M900 364L900 319L778 289Z" fill="#2d1c44" stroke="#2d1c44"></path><path d="M900 121L797 90L790 167Z" fill="#2b1c3f" stroke="#2b1c3f"></path><path d="M790 167L797 90L674 120Z" fill="#2c1c41" stroke="#2c1c41"></path><path d="M900 600L900 506L792 528Z" fill="#311c4d" stroke="#311c4d"></path><path d="M76 364L0 426L108 487Z" fill="#2c1c41" stroke="#2c1c41"></path><path d="M0 326L101 298L0 198Z" fill="#291c3a" stroke="#291c3a"></path><path d="M0 198L101 298L131 188Z" fill="#2d1c44" stroke="#2d1c44"></path><path d="M797 90L727 0L674 120Z" fill="#301c4b" stroke="#301c4b"></path><path d="M0 426L0 514L108 487Z" fill="#331c52" stroke="#331c52"></path><path d="M289 0L167 0L221 88Z" fill="#2d1c44" stroke="#2d1c44"></path><path d="M131 91L0 198L131 188Z" fill="#2c1c41" stroke="#2c1c41"></path><path d="M900 319L900 177L778 289Z" fill="#2c1c41" stroke="#2c1c41"></path><path d="M797 90L768 0L727 0Z" fill="#2f1c48" stroke="#2f1c48"></path><path d="M784 600L900 600L792 528Z" fill="#321c50" stroke="#321c50"></path><path d="M900 0L768 0L797 90Z" fill="#311c4d" stroke="#311c4d"></path><path d="M0 72L0 198L131 91Z" fill="#2d1c44" stroke="#2d1c44"></path><path d="M0 514L0 600L116 600Z" fill="#291c3a" stroke="#291c3a"></path><path d="M900 177L900 121L790 167Z" fill="#2d1c44" stroke="#2d1c44"></path><path d="M167 0L109 0L131 91Z" fill="#2b1c3f" stroke="#2b1c3f"></path><path d="M109 0L0 72L131 91Z" fill="#301c4b" stroke="#301c4b"></path><path d="M900 121L900 0L797 90Z" fill="#331c52" stroke="#331c52"></path><path d="M109 0L0 0L0 72Z" fill="#321c50" stroke="#321c50"></path></g></svg>